HIERARCHY
ROOT root
{
	OFFSET	0	13.1	24.9
	CHANNELS 6  Xposition Yposition Zposition Xrotation Yrotation Zrotation
	JOINT spine_1
	{
		OFFSET	0	9.99999	0
		CHANNELS 3  Xrotation Yrotation Zrotation
		JOINT spine_2
		{
			OFFSET	0	112	-10
			CHANNELS 3  Xrotation Yrotation Zrotation
			JOINT spine_3
			{
				OFFSET	0	206.5	19.3
				CHANNELS 3  Xrotation Yrotation Zrotation
				JOINT spine_4
				{
					OFFSET	0	110.4	14.6
					CHANNELS 3  Xrotation Yrotation Zrotation
					JOINT neck_1
					{
						OFFSET	0	71.8	-50.3
						CHANNELS 3  Xrotation Yrotation Zrotation
						JOINT neck_2
						{
							OFFSET	0	86.2	-25.8
							CHANNELS 3  Xrotation Yrotation Zrotation
							JOINT head_ee
							{
								OFFSET	0	179.8	-8.7
								CHANNELS 3  Xrotation Yrotation Zrotation
								End Site
								{
									OFFSET	1	0	0
								}
							}
						}
					}
					JOINT left_clavicle
					{
						OFFSET	-43.2	22.4	-70.8
						CHANNELS 3  Xrotation Yrotation Zrotation
						JOINT left_shoulder
						{
							OFFSET	-93.9	-5.79999	48.7
							CHANNELS 3  Xrotation Yrotation Zrotation
							JOINT left_elbow
							{
								OFFSET	-291.4	-30.8	15.2
								CHANNELS 3  Xrotation Yrotation Zrotation
								JOINT left_lowarm_twist
								{
									OFFSET	-110.7	-3.89999	13.6
									CHANNELS 3  Xrotation Yrotation Zrotation
									JOINT left_hand
									{
										OFFSET	-110.7	-3.89999	13.6
										CHANNELS 3  Xrotation Yrotation Zrotation
										JOINT left_ee
										{
											OFFSET	-80.8	-5.10001	12.1
											CHANNELS 3  Xrotation Yrotation Zrotation
											End Site
											{
												OFFSET	1	0	0
											}
										}
									}
								}
							}
						}
					}
					JOINT right_clavicle
					{
						OFFSET	43.2	22.4	-70.8
						CHANNELS 3  Xrotation Yrotation Zrotation
						JOINT right_shoulder
						{
							OFFSET	93.9	-5.79999	48.7
							CHANNELS 3  Xrotation Yrotation Zrotation
							JOINT right_elbow
							{
								OFFSET	291.4	-30.8	15.2
								CHANNELS 3  Xrotation Yrotation Zrotation
								JOINT right_lowarm_twist
								{
									OFFSET	110.7	-3.89999	13.6
									CHANNELS 3  Xrotation Yrotation Zrotation
									JOINT right_hand
									{
										OFFSET	110.7	-3.89999	13.6
										CHANNELS 3  Xrotation Yrotation Zrotation
										JOINT right_ee
										{
											OFFSET	80.8	-5.10001	12.1
											CHANNELS 3  Xrotation Yrotation Zrotation
											End Site
											{
												OFFSET	1	0	0
											}
										}
									}
								}
							}
						}
					}
				}
			}
		}
	}
	JOINT left_hip
	{
		OFFSET	-82.8	-127.5	0.300001
		CHANNELS 3  Xrotation Yrotation Zrotation
		JOINT left_knee
		{
			OFFSET	-28.2	-396.7	2.2
			CHANNELS 3  Xrotation Yrotation Zrotation
			JOINT left_ankle
			{
				OFFSET	-11.7	-411.3	35.4
				CHANNELS 3  Xrotation Yrotation Zrotation
				JOINT left_toes
				{
					OFFSET	0	-60	-88.6
					CHANNELS 3  Xrotation Yrotation Zrotation
					JOINT left_foot_ee
					{
						OFFSET	-22.5	-16.5	-42.2
						CHANNELS 3  Xrotation Yrotation Zrotation
						End Site
						{
							OFFSET	1	0	0
						}
					}
				}
			}
		}
	}
	JOINT right_hip
	{
		OFFSET	82.8	-127.5	0.300001
		CHANNELS 3  Xrotation Yrotation Zrotation
		JOINT right_knee
		{
			OFFSET	28.2	-396.7	2.2
			CHANNELS 3  Xrotation Yrotation Zrotation
			JOINT right_ankle
			{
				OFFSET	11.7	-411.3	35.4
				CHANNELS 3  Xrotation Yrotation Zrotation
				JOINT right_toes
				{
					OFFSET	0	-60	-88.6
					CHANNELS 3  Xrotation Yrotation Zrotation
					JOINT right_foot_ee
					{
						OFFSET	22.5	-16.5	-42.2
						CHANNELS 3  Xrotation Yrotation Zrotation
						End Site
						{
							OFFSET	1	0	0
						}
					}
				}
			}
		}
	}
}
MOTION
Frames: 8
Frame Time: 0.02
2448.9165361 754.495 -1556.35763202 -3.35284204343 84.5032914803 0.423019550686 1.76968 0.319908 2.07396 1.77205 0.187318 2.0901 1.77899 -0.191416 2.08973 1.77292 0.140945 2.09374 -10.652 11.6682 -4.51579 -10.8403 25.0072 -1.27616 -0.0 0.0 -0.0 0.519137 22.8509 3.36703 -15.8195 -30.426 58.1004 0.513749 -14.2786 0.0643493 -44.3189 -3.42174 4.3533 0.381788 8.80887 6.1298 -0.0 0.0 -0.0 10.4371 -6.18768 -20.0912 -17.3199 43.7647 -62.0703 1.10131 28.6142 -0.280874 21.4379 -0.250791 2.71107 -1.2214 -0.512494 7.95495 0.0 0.0 0.0 2.22389 4.16063 -2.49531 -22.9146 0.24965 3.48418 30.821 11.5096 -3.99322 -33.2727 0.0 0.0 -0.0 0.0 -0.0 -0.436042 4.12637 -4.30536 2.25901 0.0995955 0.332307 24.034 -3.36762 3.22356 -8.1623 0.0 0.0 0.0 0.0 0.0 
2443.50939641 748.382 -1544.8040828 -17.1957848807 88.5863141999 14.5760790254 1.82007 0.256709 1.85766 1.82198 0.138002 1.87022 1.82652 -0.198867 1.86473 1.82168 0.0980751 1.87274 -13.5244 12.0667 -3.60353 -13.9663 25.2012 0.415652 -0.0 0.0 -0.0 -0.0480203 20.7396 2.34493 -13.1872 -30.0052 61.3703 0.344367 -9.68105 0.0291627 -43.0157 -3.27744 4.26874 1.32844 8.5424 12.2274 -0.0 0.0 -0.0 10.2625 -5.88454 -19.7759 -15.5779 42.8081 -61.813 1.08452 28.2457 -0.27288 19.2822 -0.271707 2.43654 -0.746413 2.36319 6.02065 0.0 0.0 0.0 4.04345 4.15454 -3.2043 -19.3518 0.302788 2.94016 34.3305 8.42257 -4.338 -35.9906 0.0 0.0 -0.0 0.0 -0.0 -0.346497 1.06498 -4.08904 2.60602 0.116055 0.383004 25.0368 -0.0609174 3.35705 -8.51616 0.0 0.0 0.0 0.0 0.0 
2436.71336318 750.529 -1529.44529102 -156.830376386 87.6557989193 153.831587406 1.91663 0.119046 1.92429 1.91869 -0.0036202 1.92797 1.91848 -0.345573 1.89676 1.91346 -0.0417372 1.92752 -12.7622 11.952 -3.5144 -13.1361 24.9225 0.278933 -0.0 0.0 -0.0 -0.246418 19.2942 1.88653 -11.7551 -28.3036 63.8613 0.263916 -7.44856 0.0171789 -44.8369 -3.47963 4.38601 1.5839 16.3712 16.6381 -0.0 0.0 -0.0 10.2128 -8.71036 -19.4001 -14.5056 41.6747 -62.526 1.05971 27.6966 -0.261245 14.7123 -0.281832 1.85309 -0.405778 8.47818 6.35233 0.0 0.0 0.0 4.73191 4.10989 -1.9472 -5.88604 0.197207 0.881412 31.9424 2.05997 -4.1014 -38.7833 0.0 0.0 -0.0 0.0 -0.0 0.143685 -0.0328159 -3.605 3.34364 0.152062 0.490435 24.2426 -1.11114 3.25803 -9.57034 0.0 0.0 0.0 0.0 0.0 
2435.54094636 753.724 -1516.15991037 -165.147422651 85.676994554 162.078299112 1.78335 0.216805 1.87548 1.7853 0.0970458 1.88547 1.78853 -0.243157 1.87225 1.78364 0.0555274 1.88715 -12.6025 11.8226 -5.39436 -12.9443 25.8544 -1.60126 -0.0 0.0 -0.0 -0.820532 18.0616 0.866219 -10.7644 -26.7613 66.4905 0.346364 -9.73613 0.0294995 -45.0869 -3.50767 4.4016 1.98212 19.0025 20.0236 -0.0 0.0 -0.0 10.0333 -9.48016 -18.9773 -14.9918 41.9831 -61.2709 1.08677 28.2951 -0.273944 10.3987 -0.248705 1.30323 -0.363954 15.4959 9.05863 0.0 0.0 0.0 4.80163 1.33375 -1.33969 -3.13568 0.116346 0.467104 26.956 0.361357 -3.57419 -37.7683 0.0 0.0 -0.0 0.0 -0.0 1.35854 -4.19152 -2.94864 0.863422 0.0365161 0.127463 24.1317 -0.32266 3.24971 -8.1945 0.0 0.0 0.0 0.0 0.0 
2425.28901563 759.895 -1495.01214783 -164.58904285 81.674720942 161.574446798 1.6117 0.328383 1.57443 1.61305 0.227546 1.59213 1.61953 -0.0667623 1.60691 1.61598 0.187825 1.5973 -9.61942 10.6937 -4.00722 -9.71096 22.8196 -1.27666 -0.0 0.0 -0.0 -1.31399 14.0535 -0.481371 -8.75089 -22.8413 72.1966 0.28948 -8.16075 0.0206505 -43.3066 -3.30949 4.2879 3.38711 28.0505 31.2345 -0.0 0.0 -0.0 10.4917 -11.5782 -19.5819 -17.4228 40.4882 -57.6912 1.12919 29.2203 -0.294355 1.22695 -0.041612 0.151178 0.136154 21.7432 8.33624 0.0 0.0 0.0 5.37261 -2.26045 -0.94903 0.159926 -0.00661841 -0.0236495 22.681 -9.31337 -3.18318 -28.862 0.0 0.0 -0.0 0.0 -0.0 5.92661 -8.99807 -1.06023 -2.38835 -0.0909434 -0.355223 27.0731 1.04656 3.59779 -10.5142 0.0 0.0 0.0 0.0 0.0 
2425.2161698 759.895 -1493.68216519 -164.948897016 81.4790102948 161.938224384 1.6117 0.328383 1.57443 1.61305 0.227546 1.59213 1.61953 -0.0667623 1.60691 1.61598 0.187825 1.5973 -9.61942 10.6937 -4.00722 -9.71096 22.8196 -1.27666 -0.0 0.0 -0.0 -1.31399 14.0535 -0.481371 -8.75089 -22.8413 72.1966 0.28948 -8.16075 0.0206505 -43.3066 -3.30949 4.2879 3.38711 28.0505 31.2345 -0.0 0.0 -0.0 10.4917 -11.5782 -19.5819 -17.4228 40.4882 -57.6912 1.12919 29.2203 -0.294355 1.22695 -0.041612 0.151178 0.136154 21.7432 8.33624 0.0 0.0 0.0 5.37261 -2.26045 -0.94903 0.159926 -0.00661841 -0.0236495 22.681 -9.31337 -3.18318 -28.862 0.0 0.0 -0.0 0.0 -0.0 5.92661 -8.99807 -1.06023 -2.38835 -0.0909434 -0.355223 27.0731 1.04656 3.59779 -10.5142 0.0 0.0 0.0 0.0 0.0 
2425.12482275 759.895 -1491.87644764 -165.411596204 81.2128389875 162.406250835 1.6117 0.328383 1.57443 1.61305 0.227546 1.59213 1.61953 -0.0667623 1.60691 1.61598 0.187825 1.5973 -9.61942 10.6937 -4.00722 -9.71096 22.8196 -1.27666 -0.0 0.0 -0.0 -1.31399 14.0535 -0.481371 -8.75089 -22.8413 72.1966 0.28948 -8.16075 0.0206505 -43.3066 -3.30949 4.2879 3.38711 28.0505 31.2345 -0.0 0.0 -0.0 10.4917 -11.5782 -19.5819 -17.4228 40.4882 -57.6912 1.12919 29.2203 -0.294355 1.22695 -0.041612 0.151178 0.136154 21.7432 8.33624 0.0 0.0 0.0 5.37261 -2.26045 -0.94903 0.159926 -0.00661841 -0.0236495 22.681 -9.31337 -3.18318 -28.862 0.0 0.0 -0.0 0.0 -0.0 5.92661 -8.99807 -1.06023 -2.38835 -0.0909434 -0.355223 27.0731 1.04656 3.59779 -10.5142 0.0 0.0 0.0 0.0 0.0 
2424.94693011 759.895 -1487.70205993 -166.380073105 80.5957381514 163.387045972 1.6117 0.328383 1.57443 1.61305 0.227546 1.59213 1.61953 -0.0667623 1.60691 1.61598 0.187825 1.5973 -9.61942 10.6937 -4.00722 -9.71096 22.8196 -1.27666 -0.0 0.0 -0.0 -1.31399 14.0535 -0.481371 -8.75089 -22.8413 72.1966 0.28948 -8.16075 0.0206505 -43.3066 -3.30949 4.2879 3.38711 28.0505 31.2345 -0.0 0.0 -0.0 10.4917 -11.5782 -19.5819 -17.4228 40.4882 -57.6912 1.12919 29.2203 -0.294355 1.22695 -0.041612 0.151178 0.136154 21.7432 8.33624 0.0 0.0 0.0 5.37261 -2.26045 -0.94903 0.159926 -0.00661841 -0.0236495 22.681 -9.31337 -3.18318 -28.862 0.0 0.0 -0.0 0.0 -0.0 5.92661 -8.99807 -1.06023 -2.38835 -0.0909434 -0.355223 27.0731 1.04656 3.59779 -10.5142 0.0 0.0 0.0 0.0 0.0 
